<?xml version="1.0" encoding="UTF-8"?>
<svg width="51px" height="24px" viewBox="0 0 51 24" version="1.1" xmlns="http://www.w3.org/2000/svg" xmlns:xlink="http://www.w3.org/1999/xlink">
    <!-- Generator: Sketch 53.1 (72631) - https://sketchapp.com -->
    <title>Shape</title>
    <desc>Created with Sketch.</desc>
    <g id="Symbols" stroke="none" stroke-width="1" fill="none" fill-rule="evenodd">
        <g id="Menu" transform="translate(-105.000000, -20.000000)" fill="#000000" fill-rule="nonzero">
            <g id="Group" transform="translate(8.000000, 1.000000)">
                <g id="line-chart" transform="translate(97.000000, 19.000000)">
                    <path d="M45.5848465,9.89119684e-05 C42.5989617,9.89119684e-05 40.1697926,2.41226508 40.1697926,5.37725025 C40.1697926,6.4586548 40.4940205,7.46567755 41.0494413,8.30969337 L35.1990953,14.11909 C34.3490306,13.5675569 33.3349095,13.2455984 32.2458823,13.2455984 C31.1174099,13.2455984 30.0686249,13.5906034 29.200232,14.1794263 L23.2896225,8.30929773 C23.8449437,7.4652819 24.1689723,6.45835806 24.1689723,5.37715134 C24.1689723,2.41216617 21.7398032,0 18.7539184,0 C15.7680337,0 13.3388646,2.41216617 13.3388646,5.37715134 C13.3388646,6.45835806 13.6629928,7.46498516 14.2181148,8.30900099 L8.36756959,14.1186944 C7.51770407,13.5673591 6.50378222,13.2455984 5.41505388,13.2455984 C2.42916908,13.2455984 0,15.6578635 0,18.6228487 C0,21.5878338 2.42916908,24 5.41505388,24 C8.40093867,24 10.8301078,21.5878338 10.8301078,18.6228487 C10.8301078,17.5414441 10.5058799,16.5344214 9.95045908,15.6903066 L15.8008051,9.88090999 C16.6508698,10.4324431 17.6649909,10.7544016 18.7540181,10.7544016 C19.8429456,10.7544016 20.8570667,10.4324431 21.7070318,9.88090999 L27.6503132,15.7833828 C27.1317478,16.6081108 26.8309281,17.5810089 26.8309281,18.6227498 C26.8309281,21.5877349 29.2600971,23.9999011 32.2459819,23.9999011 C35.2318667,23.9999011 37.6610358,21.5877349 37.6610358,18.6227498 C37.6610358,17.541543 37.3369075,16.534817 36.7817856,15.6909001 L42.6324304,9.88120673 C43.4823955,10.432542 44.4963174,10.7543027 45.5849461,10.7543027 C48.5708309,10.7543027 51,8.3421365 51,5.37715134 C51,2.41206726 48.5707313,9.89119684e-05 45.5848465,9.89119684e-05 Z M5.41505388,21.7773492 C3.66332683,21.7773492 2.23821828,20.3622156 2.23821828,18.6228487 C2.23821828,16.8833828 3.66332683,15.4682493 5.41505388,15.4682493 C7.16668132,15.4682493 8.59188947,16.8833828 8.59188947,18.6228487 C8.59188947,20.3622156 7.16678092,21.7773492 5.41505388,21.7773492 Z M18.7540181,8.53175074 C17.0023906,8.53175074 15.5771825,7.11661721 15.5771825,5.37715134 C15.5771825,3.63778437 17.002291,2.22255193 18.7540181,2.22255193 C20.5057451,2.22255193 21.9308537,3.63768546 21.9308537,5.37715134 C21.9308537,7.11661721 20.5057451,8.53175074 18.7540181,8.53175074 Z M32.2458823,21.7773492 C30.4942549,21.7773492 29.0690467,20.3622156 29.0690467,18.6227498 C29.0690467,16.8832839 30.4941553,15.4681503 32.2458823,15.4681503 C33.9975098,15.4681503 35.4227179,16.8832839 35.4227179,18.6227498 C35.4226183,20.3622156 33.9975098,21.7773492 32.2458823,21.7773492 Z M45.5848465,8.53175074 C43.8332191,8.53175074 42.4080109,7.11661721 42.4080109,5.37715134 C42.4080109,3.63778437 43.8331195,2.22255193 45.5848465,2.22255193 C47.336474,2.22255193 48.7616821,3.63768546 48.7616821,5.37715134 C48.7616821,7.11661721 47.336474,8.53175074 45.5848465,8.53175074 Z" id="Shape"></path>
                </g>
            </g>
        </g>
    </g>
</svg>