<?xml version="1.0" encoding="UTF-8"?>
<svg width="34px" height="41px" viewBox="0 0 34 41" version="1.1" xmlns="http://www.w3.org/2000/svg" xmlns:xlink="http://www.w3.org/1999/xlink">
    <!-- Generator: Sketch 53.1 (72631) - https://sketchapp.com -->
    <title>Path</title>
    <desc>Created with Sketch.</desc>
    <g id="Symbols" stroke="none" stroke-width="1" fill="none" fill-rule="evenodd">
        <g id="Menu" transform="translate(-12.000000, -3.000000)" fill="#000000" fill-rule="nonzero">
            <g id="Group" transform="translate(8.000000, 1.000000)">
                <g id="home" transform="translate(4.000000, 2.000000)">
                    <path d="M33.0366862,20.3346611 C32.5047764,20.3346611 32.0733724,20.7792602 32.0733724,21.3274392 L32.0733724,39.0146092 L21.7363731,39.0146092 L21.7363731,27.9117093 C21.7363731,27.3635303 21.3049691,26.9189312 20.7730593,26.9189312 L13.2271012,26.9189312 C12.6951915,26.9189312 12.2637874,27.3635303 12.2637874,27.9117093 L12.2637874,36.7155005 C12.2637874,37.2636795 12.6951915,37.7082786 13.2271012,37.7082786 C13.759011,37.7082786 14.190415,37.2636795 14.190415,36.7155005 L14.190415,28.9044875 L19.8097455,28.9044875 L19.8097455,39.0146092 L1.9266276,39.0146092 L1.9266276,14.714544 L16.9999197,2.26527153 L32.4341334,15.0125429 C32.8493217,15.3555478 33.4555672,15.2863842 33.7882315,14.8586623 C34.1208959,14.4307749 34.0541061,13.806152 33.6389179,13.4631471 L17.602312,0.218162997 C17.2503813,-0.0727209991 16.7494581,-0.0727209991 16.3975275,0.218162997 L0.36092157,13.4631471 C0.132776752,13.6516095 0,13.9363714 0,14.237845 L0,40.0072219 C0,40.5554009 0.431243478,41 0.963313799,41 L33.0366862,41 C33.5687565,41 34,40.5554009 34,40.0072219 L34,21.3274392 C34,20.7790948 33.5687565,20.3346611 33.0366862,20.3346611 Z" id="Path"></path>
                </g>
            </g>
        </g>
    </g>
</svg>