<?xml version="1.0" encoding="UTF-8"?>
<svg width="44px" height="32px" viewBox="0 0 44 32" version="1.1" xmlns="http://www.w3.org/2000/svg" xmlns:xlink="http://www.w3.org/1999/xlink">
    <!-- Generator: Sketch 53.1 (72631) - https://sketchapp.com -->
    <title>Shape</title>
    <desc>Created with Sketch.</desc>
    <g id="Symbols" stroke="none" stroke-width="1" fill="none" fill-rule="evenodd">
        <g id="Menu" transform="translate(-215.000000, -12.000000)" fill="#000000" fill-rule="nonzero">
            <g id="Group" transform="translate(8.000000, 1.000000)">
                <g id="book" transform="translate(207.000000, 11.000000)">
                    <path d="M43.1471215,2.66284638 C43.1442431,2.66284638 43.1413646,2.66284638 43.1385928,2.66284638 L43.1385928,2.66284638 L40.2473348,2.66284638 L40.2473348,1.65998408 C40.2628998,1.26305377 40.0095949,0.906324407 39.6332623,0.795447604 C37.6260128,0.262244735 35.5590618,-0.00511316869 33.4840085,7.40501359e-05 C30.0724947,7.40501359e-05 25.424307,0.778156875 21.9872068,4.32275641 C18.575693,0.743575416 13.8933902,7.40501359e-05 10.4904051,7.40501359e-05 C8.41535181,-0.00511316869 6.34840085,0.262244735 4.34115139,0.795447604 C3.96481876,0.906324407 3.71151386,1.26305377 3.72707889,1.65998408 L3.72707889,2.65420102 L0.852878465,2.65420102 C0.381876333,2.65420102 0,3.04129722 0,3.51873749 L0,31.1320324 C0,31.6094727 0.381876333,31.9965689 0.852878465,31.9965689 C0.999360341,31.9961366 1.14328358,31.9574486 1.27078891,31.8841791 C1.35607676,31.8409523 9.88486141,27.1119378 21.7910448,30.1551062 L21.9189765,30.1551062 L21.9957356,30.1551062 C22.0637527,30.1634273 22.1324094,30.1634273 22.2004264,30.1551062 C34.1407249,27.0860017 42.6695096,31.8063708 42.7206823,31.8841791 C42.9845416,32.038607 43.3097015,32.038607 43.5735608,31.8841791 C43.8358209,31.7307239 43.9981876,31.4476963 44,31.1406778 L44,3.52738286 C44,3.04994259 43.6182303,2.66284638 43.1471215,2.66284638 Z M1.70575693,29.7574194 L1.70575693,4.39191933 L3.74413646,4.39191933 L3.74413646,26.074494 C3.73880597,26.5519343 4.1163113,26.9433532 4.58731343,26.9487565 C4.63336887,26.9492969 4.67942431,26.9460549 4.7249467,26.9390305 C6.48933902,26.6659451 8.2706823,26.5214594 10.0554371,26.5067623 C12.5277186,26.4633193 14.9896588,26.8402572 17.3390192,27.6220143 C12.0335821,26.9716668 6.6521322,27.7067389 1.70575693,29.7574194 Z M10.0554371,24.7863347 C8.50415778,24.7899009 6.95469083,24.8909436 5.41577825,25.0889225 L5.41577825,2.34296789 C7.07633262,1.96797519 8.77206823,1.77658843 10.4733475,1.77237382 C13.663113,1.77237382 18.0639659,2.51587518 21.1172708,6.00860253 L21.1428571,27.544206 C19.3688699,26.3684364 15.9061834,24.7863347 10.0554371,24.7863347 Z M22.8486141,6.00860253 C25.901919,2.55045664 30.3027719,1.77237382 33.4925373,1.77237382 C35.19371,1.77745297 36.8894456,1.96873166 38.5501066,2.34296789 L38.5501066,25.0889225 C37.0198294,24.8891065 35.4788913,24.785146 33.9360341,24.7776893 C28.119403,24.7776893 24.6481876,26.3597911 22.8486141,27.5355607 L22.8486141,6.00860253 L22.8486141,6.00860253 Z M42.2857143,29.7574194 C37.3287846,27.7011194 31.934968,26.9659392 26.6183369,27.6220143 C28.9787846,26.8374475 31.452452,26.4604015 33.9360341,26.5067623 C35.7319829,26.5169206 37.5248401,26.6584884 39.3006397,26.9303851 C39.7663113,27.0020336 40.2011727,26.6774002 40.271855,26.2053632 C40.2787846,26.1592186 40.2819829,26.1125336 40.2814499,26.0658487 L40.2814499,4.39191933 L42.3198294,4.39191933 L42.2857143,29.7574194 Z" id="Shape"></path>
                </g>
            </g>
        </g>
    </g>
</svg>