<?xml version="1.0" encoding="UTF-8"?>
<svg width="132px" height="132px" viewBox="0 0 132 132" version="1.1" xmlns="http://www.w3.org/2000/svg" xmlns:xlink="http://www.w3.org/1999/xlink">
    <!-- Generator: Sketch 53.1 (72631) - https://sketchapp.com -->
    <title>Running</title>
    <desc>Created with Sketch.</desc>
    <g id="Designs" stroke="none" stroke-width="1" fill="none" fill-rule="evenodd">
        <g id="Today" transform="translate(-46.000000, -501.000000)">
            <g id="Running" transform="translate(46.000000, 501.000000)">
                <circle id="Oval" fill="#FFAA7C" cx="66" cy="66" r="66"></circle>
                <g id="running" transform="translate(28.000000, 20.000000)" fill="#FFFFFF" fill-rule="nonzero">
                    <path d="M68.4720041,33.416501 L57.1176782,32.6102768 L49.6134555,20.1861252 L45.8619241,13.9651169 L45.8619241,12.2420216 C45.8630837,10.3719733 44.3386979,8.85518837 42.4571339,8.85403573 C42.0355939,8.85345948 41.617533,8.93125799 41.2249847,9.08224502 L30.4354178,13.2188264 L31.2506657,10.4993325 C31.8942825,8.21320561 30.8499998,5.78992268 28.7411405,4.67538533 L20.2749719,0.154997315 C19.6591872,-0.173485677 18.8920658,0.0362824566 18.5319883,0.63158594 L6.11366535,20.3958933 L5.85158,20.2449063 C5.22419862,19.8864564 4.42344673,20.1019874 4.06336933,20.725529 C4.05525156,20.7387836 4.04829369,20.7520381 4.04075573,20.7658689 L0.152963107,28.0403282 C-0.182181362,28.6684801 0.051491971,29.4470424 0.67713381,29.7910853 L47.9597665,55.8374873 C48.1540112,55.9441001 48.3720291,56 48.5941059,56 L68.1380192,56 C72.4780832,55.995966 75.9959411,52.5002145 76,48.186137 L76,41.4505053 C75.986084,37.2297861 72.7071179,33.730577 68.4720041,33.416501 Z M54.3791182,33.1375786 L52.8825645,33.6337609 L41.157724,18.4826236 L44.1717055,16.2333789 L54.3791182,33.1375786 Z M20.1358115,3.03700411 L27.5014537,6.96612253 C28.5225428,7.50264491 29.0327975,8.67020043 28.7307035,9.77782235 L27.6481518,13.4038144 L20.1265342,8.92088491 L17.521916,7.36721764 L20.1358115,3.03700411 Z M12.3776213,15.4663423 L13.0484901,14.4244171 L17.3595623,17.611279 C19.5536573,19.2485077 20.6738983,21.9449503 20.28135,24.6442743 L20.1178366,28.4079987 L8.40691222,21.6994525 L12.3776213,15.4663423 Z M68.1380192,53.3957632 L48.9309899,53.3957632 L3.06895252,28.1302288 L5.71705832,23.1816602 L49.1379909,48.0126748 C49.3374541,48.1267795 49.56301,48.1867133 49.7932044,48.186137 L73.3791465,48.186137 C73.3791465,51.0629571 71.0325548,53.3957632 68.1380192,53.3957632 L68.1380192,53.3957632 Z M73.3791465,45.5813239 L50.1428448,45.5813239 L41.1554045,40.4385469 L44.176924,37.3767389 C44.6761617,36.8563527 44.6564474,36.0316873 44.1322767,35.535505 C43.6191229,35.0491195 42.8096735,35.0571875 42.3057969,35.5533699 L38.8099726,39.0958003 L33.8303509,36.2437605 L38.8244686,32.2731494 C39.3892277,31.8236464 39.4808415,31.0035912 39.0285704,30.4417123 C38.5762991,29.8804096 37.7511942,29.7893564 37.186435,30.2388596 L31.3904059,34.8479957 L27.1239811,32.4097293 L33.5972574,27.0479636 C34.1538988,26.587511 34.2292773,25.7663034 33.7665692,25.2130687 C33.3032811,24.6598341 32.4764365,24.5849168 31.9197951,25.0447932 L24.7025908,31.0237611 L22.6766478,29.86485 L22.8888674,24.8655682 C23.3741891,21.2637801 21.8556016,17.6838911 18.922797,15.5147502 L14.4580687,12.2155124 L16.1448082,9.58361398 L27.7438245,16.5001994 C27.8998001,16.5895238 28.0725909,16.6448473 28.2511801,16.6632884 C28.2824911,16.6632884 28.3097434,16.6736615 28.3416343,16.6759667 C28.3729453,16.6788482 28.3926598,16.6851872 28.4175926,16.6851872 C28.5793665,16.6857635 28.7405607,16.656373 28.8918975,16.598168 L42.1654769,11.5101382 C42.4084277,11.4179325 42.6803703,11.4496282 42.895489,11.5948523 C43.1111876,11.7418053 43.239331,11.9855744 43.2375915,12.2460555 L43.2375915,13.6787028 L38.5200552,17.1946241 C37.9413801,17.6268388 37.8248332,18.4434361 38.2597094,19.0179933 C38.2626085,19.0220273 38.2655076,19.0260614 38.2684069,19.029519 L51.3720947,35.9602278 C51.7107183,36.4010866 52.2946118,36.5785827 52.8240012,36.401663 L56.5071121,35.181089 L68.2823981,36.0172801 C71.147942,36.2282008 73.3681296,38.5944315 73.3791465,41.4505053 L73.3791465,45.5813239 Z" id="Shape"></path>
                    <path d="M8.57133827,38 L1.42866173,38 C0.639737023,38 0,38.4477876 0,39 C0,39.5522124 0.639737023,40 1.42866173,40 L8.57133827,40 C9.36026298,40 10,39.5522124 10,39 C10,38.4477876 9.36026298,38 8.57133827,38 Z" id="Path"></path>
                    <path d="M0,47 C0,47.5522124 0.597085376,48 1.33341201,48 L18.6665881,48 C19.4029148,48 20,47.5522124 20,47 C20,46.4477876 19.4029148,46 18.6665881,46 L1.33341201,46 C0.597085376,46 0,46.4477876 0,47 Z" id="Path"></path>
                    <path d="M33.6543502,54 L1.34624549,54 C0.602832051,54 0,54.447444 0,54.9997786 C0,55.5521132 0.602832051,56 1.34624549,56 L33.6543502,56 C34.3977636,56 35,55.5521132 35,54.9997786 C35,54.447444 34.3977636,54 33.6543502,54 Z" id="Path"></path>
                </g>
                <text id="9,836-steps" font-family="HelveticaNeue-Medium, Helvetica Neue" font-size="16" font-weight="400" letter-spacing="0.02588734" fill="#FFFFFF">
                    <tspan x="23" y="103">9,836 steps</tspan>
                </text>
            </g>
        </g>
    </g>
</svg>