<?xml version="1.0" encoding="UTF-8"?>
<svg width="132px" height="132px" viewBox="0 0 132 132" version="1.1" xmlns="http://www.w3.org/2000/svg" xmlns:xlink="http://www.w3.org/1999/xlink">
    <!-- Generator: Sketch 53.1 (72631) - https://sketchapp.com -->
    <title>Scale</title>
    <desc>Created with Sketch.</desc>
    <g id="Designs" stroke="none" stroke-width="1" fill="none" fill-rule="evenodd">
        <g id="Today" transform="translate(-236.000000, -501.000000)">
            <g id="Scale" transform="translate(236.000000, 501.000000)">
                <circle id="Oval-Copy" fill="#729DF9" cx="66" cy="66" r="66"></circle>
                <text id="146-lbs" font-family="HelveticaNeue-Medium, Helvetica Neue" font-size="16" font-weight="400" letter-spacing="0.02588734" fill="#FFFFFF">
                    <tspan x="38" y="103">146 lbs</tspan>
                </text>
                <g id="scale" transform="translate(32.000000, 14.000000)" fill="#FFFFFF" fill-rule="nonzero">
                    <path d="M44,15.9090909 C44,9.88405536 39.0752442,5 33,5 C26.9247558,5 22,9.88405536 22,15.9090909 C22,16.5115411 22.4925293,17 23.1,17 L42.9,17 C43.5074707,17 44,16.5115411 44,15.9090909 Z M33.6225098,14.8181818 L30.642627,9.89311073 L28.757373,11.0165128 L31.0572754,14.8181818 L24.2682129,14.8181818 C24.3675781,14.0298295 24.5765136,13.2590554 24.8885742,12.5271661 L25.7817871,13.0379971 L26.8817871,11.1486151 L26.002002,10.64098 C26.4854004,10.009233 27.0536621,9.44513491 27.6901367,8.96466609 L28.202002,9.84357241 L30.107129,8.75266332 L29.5898926,7.87269173 C30.3278808,7.56321023 31.1050781,7.35653409 31.9,7.25852273 L31.9,8.27272727 L34.1,8.27272727 L34.1,7.25852273 C34.8949219,7.35653409 35.6721192,7.56321023 36.4101074,7.87269173 L35.8982422,8.75053264 L37.8039062,9.84144173 L38.3152344,8.96253555 C38.9517089,9.44300423 39.5199707,10.0071023 40.0039062,10.6388494 L39.1235839,11.1464843 L40.2235839,13.0358664 L41.1167969,12.5250355 C41.4288574,13.2569247 41.6377929,14.0276989 41.7371582,14.8160511 L33.6225098,14.8181818 Z" id="Shape"></path>
                    <polygon id="Path" points="27 19 38 19 38 21 27 21"></polygon>
                    <path d="M62.3333333,6.79950198 L47.0106446,6.79950198 C44.0483725,2.5400598 39.1885417,0 34,0 C28.8114583,0 23.9516275,2.5400598 20.9893554,6.79950198 L5.66666667,6.79950198 C2.5372721,6.79950198 0,9.33679473 0,12.4662148 L0,62.3332872 C0,65.4632606 2.5372721,68 5.66666667,68 L62.3333333,68 C65.4627279,68 68,65.4632606 68,62.3332872 L68,12.4662148 C68,9.33679473 65.4627279,6.79950198 62.3333333,6.79950198 Z M22.1791341,9.15694304 C22.6522787,8.30748948 23.222819,7.51669532 23.8791341,6.79950198 C26.4529296,3.91523372 30.1346029,2.26613176 34,2.26613176 C37.8653971,2.26613176 41.5470704,3.91523372 44.1208658,6.79950198 C44.777181,7.51669532 45.3477213,8.30748948 45.8208658,9.15694304 C49.0736654,14.8745677 47.7682292,22.1012865 42.719694,26.3192246 C37.6717123,30.5371626 30.3282877,30.5371626 25.280306,26.3192246 C20.2317708,22.1012865 18.9263346,14.8745677 22.1791341,9.15694304 Z M65.7333333,62.3332872 C65.7277995,64.2087256 64.2087565,65.7277809 62.3333333,65.7333149 L5.66666667,65.7333149 C3.79124352,65.7277809 2.27220045,64.2087256 2.26666667,62.3332872 L2.26666667,12.4662148 C2.27220045,10.5907762 3.79124352,9.07172092 5.66666667,9.06618709 L19.663444,9.06618709 C19.6518229,9.1004972 19.6291341,9.12318629 19.6291341,9.15694304 C18.6407877,11.2553976 18.1294596,13.5469852 18.1333333,15.8662424 C18.1333333,24.6291717 25.2371419,31.7330382 34,31.7330382 C42.7628581,31.7330382 49.8666667,24.6291717 49.8666667,15.8662424 C49.8705404,13.5469852 49.3592123,11.2553976 48.3708658,9.15694304 C48.3708658,9.12318629 48.3481771,9.1004972 48.336556,9.06618709 L62.3333333,9.06618709 C64.2087565,9.07172092 65.7277995,10.5907762 65.7333333,12.4662148 L65.7333333,62.3332872 Z" id="Shape"></path>
                </g>
            </g>
        </g>
    </g>
</svg>